<svg xmlns="http://www.w3.org/2000/svg" viewBox="0 0 604.21 184.42">
  <g id="Слой_2" data-name="Слой 2">
    <g id="Слой_1-2" data-name="Слой 1">
      <g>
        <g>
          <g>
            <path d="M104.18,90.31H83.66L30.7,0H51.23ZM84.27,89.25h18L50.61,1.07h-18Z"/>
            <path d="M77,90.31H56.43L3.47,0H24ZM57,89.25H75.09L23.39,1.07H5.33Z"/>
            <path d="M131.41,90.31H110.88L57.93,0H78.45ZM111.5,89.25h18.05L77.84,1.07H59.79Z"/>
            <g>
              <polygon points="25.91 4.33 26.54 5.39 34.48 5.39 33.86 4.33 25.91 4.33"/>
              <polygon points="53.14 4.33 53.77 5.39 61.71 5.39 61.09 4.33 53.14 4.33"/>
              <polygon points="123.07 89.78 125.29 93.57 53.56 93.57 1.86 5.39 7.25 5.39 6.63 4.33 0 4.33 52.95 94.64 127.15 94.64 124.3 89.78 123.07 89.78"/>
            </g>
          </g>
          <polygon points="106.99 136.48 34.78 136.48 86.56 48.16 158.77 48.16 106.99 136.48"/>
          <g>
            <polygon points="76.6 131.36 57.51 131.36 109.3 43.04 128.39 43.04 76.6 131.36" style="fill: #39a3dc"/>
            <polygon points="103.55 131.36 84.46 131.36 136.25 43.04 155.34 43.04 103.55 131.36" style="fill: #39a3dc"/>
            <polygon points="49.65 131.36 30.57 131.36 82.35 43.04 101.44 43.04 49.65 131.36" style="fill: #39a3dc"/>
          </g>
        </g>
        <g>
          <path d="M182.75,74.84a9.44,9.44,0,0,0,2.19-2.27,11.94,11.94,0,0,0,1.49-3.23,28.14,28.14,0,0,0,.93-4.47q.33-2.55.5-6L188.59,43h26.16q0,8,0,16t0,16h3.37V90.28h-7V81.63H186.91v8.65h-7V74.84Zm12.75-25.1L195.05,59c-.08,1.65-.17,3.21-.28,4.69s-.28,2.88-.51,4.21a22.72,22.72,0,0,1-.95,3.76,12.73,12.73,0,0,1-1.69,3.23h15.55V49.74Z"/>
          <path d="M253,69.28a12.21,12.21,0,0,1-1.18,5.5,11.77,11.77,0,0,1-3.2,4,13.53,13.53,0,0,1-4.73,2.44,20.54,20.54,0,0,1-11.49,0,13.53,13.53,0,0,1-4.73-2.44,11.77,11.77,0,0,1-3.2-4,12.21,12.21,0,0,1-1.17-5.5V55.08a11.35,11.35,0,0,1,4.53-9.38,14.79,14.79,0,0,1,4.77-2.36,19.79,19.79,0,0,1,5.55-.78,18.46,18.46,0,0,1,5.54.84,15.26,15.26,0,0,1,4.77,2.44A11.63,11.63,0,0,1,253,55.3Zm-7.7-12.63a7.63,7.63,0,0,0-.61-3.23,6.29,6.29,0,0,0-1.63-2.16A6.75,6.75,0,0,0,240.77,50a8.78,8.78,0,0,0-2.61-.39,9.17,9.17,0,0,0-2.64.39,6.74,6.74,0,0,0-2.3,1.24,6.15,6.15,0,0,0-1.62,2.16,7.48,7.48,0,0,0-.62,3.23V67.93a7.65,7.65,0,0,0,.62,3.26,6.09,6.09,0,0,0,1.62,2.19,6.35,6.35,0,0,0,2.3,1.21,9.88,9.88,0,0,0,2.64.36,9.45,9.45,0,0,0,2.61-.36,6.35,6.35,0,0,0,2.28-1.21,6.22,6.22,0,0,0,1.63-2.19,7.81,7.81,0,0,0,.61-3.26Z"/>
          <path d="M276.62,43A10.27,10.27,0,0,1,285,46.88a11.53,11.53,0,0,1,2,3.9,14.8,14.8,0,0,1,.64,4.24,13,13,0,0,1-2.95,8.14A11.2,11.2,0,0,1,281.2,66a10.28,10.28,0,0,1-4.8,1.09H267V81.63h-7.69V43ZM267,60.19h7.86a5.15,5.15,0,0,0,4-1.47,5.19,5.19,0,0,0-4-8.86H267Z"/>
          <path d="M321.14,69.28a12.21,12.21,0,0,1-1.17,5.5,11.77,11.77,0,0,1-3.2,4A13.53,13.53,0,0,1,312,81.21a20.54,20.54,0,0,1-11.49,0,13.67,13.67,0,0,1-4.74-2.44,11.74,11.74,0,0,1-3.19-4,12.08,12.08,0,0,1-1.18-5.5V55.08a11.5,11.5,0,0,1,1.24-5.45A11.64,11.64,0,0,1,296,45.7a14.64,14.64,0,0,1,4.76-2.36,19.9,19.9,0,0,1,5.55-.78,18.48,18.48,0,0,1,5.55.84,15.2,15.2,0,0,1,4.76,2.44,11.88,11.88,0,0,1,3.31,4,11.76,11.76,0,0,1,1.23,5.47Zm-7.69-12.63a7.63,7.63,0,0,0-.62-3.23,6.05,6.05,0,0,0-1.63-2.16A6.7,6.7,0,0,0,308.93,50a8.78,8.78,0,0,0-2.61-.39,9.07,9.07,0,0,0-2.64.39,6.65,6.65,0,0,0-2.3,1.24,6.17,6.17,0,0,0-1.63,2.16,7.63,7.63,0,0,0-.62,3.23V67.93a7.8,7.8,0,0,0,.62,3.26,6.11,6.11,0,0,0,1.63,2.19,6.27,6.27,0,0,0,2.3,1.21,9.78,9.78,0,0,0,2.64.36,9.45,9.45,0,0,0,2.61-.36,6.31,6.31,0,0,0,2.27-1.21,6,6,0,0,0,1.63-2.19,7.8,7.8,0,0,0,.62-3.26Z"/>
          <path d="M346.12,81.63V65.3h-2.69a11.53,11.53,0,0,0-2.19.19,5.1,5.1,0,0,0-1.85.76,5.24,5.24,0,0,0-1.49,1.57,9.72,9.72,0,0,0-1.09,2.58l-3.15,11.23h-8.42l3.7-12.46a17.07,17.07,0,0,1,2.22-4.86A7.24,7.24,0,0,1,335,61.53,6.72,6.72,0,0,1,331.7,59a14.88,14.88,0,0,1-2.25-4.75L325.91,43h7.92l3.37,10.61a9.85,9.85,0,0,0,1.15,2.53,5,5,0,0,0,1.49,1.49,5.44,5.44,0,0,0,1.82.73,10.89,10.89,0,0,0,2.11.19h2.35V43h7.7V58.5h2.35a10.89,10.89,0,0,0,2.11-.19,5.25,5.25,0,0,0,1.8-.73,5.67,5.67,0,0,0,1.48-1.49,9.2,9.2,0,0,0,1.18-2.53L366.11,43H374l-3.48,11.34a16,16,0,0,1-2.3,4.75,6.79,6.79,0,0,1-3.2,2.49,7.09,7.09,0,0,1,3.76,2.78,17.33,17.33,0,0,1,2.19,4.86l3.71,12.46h-8.37l-3.2-11.23a10,10,0,0,0-1.1-2.58,5.39,5.39,0,0,0-1.45-1.57,4.94,4.94,0,0,0-1.83-.76,11.53,11.53,0,0,0-2.19-.19h-2.69V81.63Z"/>
          <path d="M400.92,81.63V65.46H386.66V81.63H379V43h7.69V58.56h14.26V43h7.8V81.63Z"/>
          <path d="M444.71,69.28a12.08,12.08,0,0,1-1.18,5.5,11.74,11.74,0,0,1-3.19,4,13.58,13.58,0,0,1-4.74,2.44,20.5,20.5,0,0,1-11.48,0,13.58,13.58,0,0,1-4.74-2.44,11.74,11.74,0,0,1-3.19-4,12.08,12.08,0,0,1-1.18-5.5V55.08a11.61,11.61,0,0,1,1.23-5.45,11.79,11.79,0,0,1,3.31-3.93,14.64,14.64,0,0,1,4.76-2.36,19.9,19.9,0,0,1,5.55-.78,18.48,18.48,0,0,1,5.55.84,15.2,15.2,0,0,1,4.76,2.44,11.88,11.88,0,0,1,3.31,4,11.76,11.76,0,0,1,1.23,5.47ZM437,56.65a7.63,7.63,0,0,0-.62-3.23,6.05,6.05,0,0,0-1.63-2.16A6.7,6.7,0,0,0,432.5,50a8.78,8.78,0,0,0-2.61-.39,9.07,9.07,0,0,0-2.64.39,6.65,6.65,0,0,0-2.3,1.24,6.17,6.17,0,0,0-1.63,2.16,7.63,7.63,0,0,0-.62,3.23V67.93a7.8,7.8,0,0,0,.62,3.26A6.11,6.11,0,0,0,425,73.38a6.27,6.27,0,0,0,2.3,1.21,9.78,9.78,0,0,0,2.64.36,9.45,9.45,0,0,0,2.61-.36,6.31,6.31,0,0,0,2.27-1.21,6,6,0,0,0,1.63-2.19,7.8,7.8,0,0,0,.62-3.26Z"/>
          <path d="M451.17,43h26.66v6.91h-19v8.87h16.22v6.9H458.86v9.1h19v6.9H451.17Z"/>
          <path d="M202.68,103.52a10.36,10.36,0,0,0-3.87-2.1,14.9,14.9,0,0,0-4-.59,9.58,9.58,0,0,0-2.59.36,6.11,6.11,0,0,0-4,3.4,7.49,7.49,0,0,0-.65,3.26v11.28a7.32,7.32,0,0,0,.65,3.23,6.29,6.29,0,0,0,1.68,2.16,7,7,0,0,0,2.3,1.24,8.59,8.59,0,0,0,2.56.39,14.6,14.6,0,0,0,3.95-.56,12,12,0,0,0,4-2.14l3.65,6a15.69,15.69,0,0,1-5.22,2.8,20.65,20.65,0,0,1-6.52,1,18.94,18.94,0,0,1-5.39-.78,15,15,0,0,1-4.71-2.33,11.91,11.91,0,0,1-3.37-3.88,11.09,11.09,0,0,1-1.29-5.47V106.27a11.2,11.2,0,0,1,1.26-5.41A12.18,12.18,0,0,1,184.46,97a14.46,14.46,0,0,1,4.69-2.35,18.61,18.61,0,0,1,5.39-.79,23.28,23.28,0,0,1,6.49.9,13.91,13.91,0,0,1,5.36,2.86Z"/>
          <path d="M226.77,101.05v31.78h-7.69V101.05H208.8v-6.9H237v6.9Z"/>
          <path d="M258.21,94.15a10.47,10.47,0,0,1,4.94,1.09,10.78,10.78,0,0,1,3.45,2.84,11.51,11.51,0,0,1,2,3.9,14.76,14.76,0,0,1,.65,4.24,13,13,0,0,1-2.95,8.14,11.21,11.21,0,0,1-3.54,2.83,10.23,10.23,0,0,1-4.8,1.1h-9.37v14.54h-7.7V94.15Zm-9.6,17.23h7.86a5.16,5.16,0,0,0,4-1.46,5.7,5.7,0,0,0,0-7.4,5.13,5.13,0,0,0-3.95-1.47h-7.86Z"/>
          <path d="M302.73,120.48a12.24,12.24,0,0,1-1.18,5.5,11.94,11.94,0,0,1-3.19,4,13.84,13.84,0,0,1-4.74,2.44,20.78,20.78,0,0,1-11.49,0A13.7,13.7,0,0,1,277.4,130a12,12,0,0,1-3.2-4,12.24,12.24,0,0,1-1.17-5.5V106.27a11.33,11.33,0,0,1,4.54-9.37,14.44,14.44,0,0,1,4.76-2.36,19.8,19.8,0,0,1,5.55-.79,18.16,18.16,0,0,1,5.54.85A15,15,0,0,1,298.19,97a11.76,11.76,0,0,1,3.3,4,11.64,11.64,0,0,1,1.24,5.47ZM295,107.85a7.59,7.59,0,0,0-.62-3.23,6.17,6.17,0,0,0-1.63-2.16,6.53,6.53,0,0,0-2.27-1.24,8.89,8.89,0,0,0-2.62-.39,9.06,9.06,0,0,0-2.63.39,6.62,6.62,0,0,0-2.31,1.24,6.15,6.15,0,0,0-1.62,2.16,7.45,7.45,0,0,0-.62,3.23v11.28a7.68,7.68,0,0,0,.62,3.26,6.09,6.09,0,0,0,1.62,2.19,6.22,6.22,0,0,0,2.31,1.2,9.39,9.39,0,0,0,2.63.37,9.22,9.22,0,0,0,2.62-.37,6,6,0,0,0,3.9-3.39,7.83,7.83,0,0,0,.62-3.26Z"/>
          <path d="M332.37,107.62l-3.82,5.9-1.65,2.61c-.66,1-1.38,2.14-2.17,3.34s-1.59,2.43-2.41,3.7l-2.39,3.71c-.76,1.2-1.48,2.31-2.16,3.34s-1.23,1.9-1.68,2.61h-7V94.15h7.69v25.43H317L325.11,107l8.23-12.8h7v38.68h-7.69V107.62Z"/>
          <path d="M362.35,101.05v31.78h-7.69V101.05H344.38v-6.9h28.19v6.9Z"/>
          <path d="M376.61,94.15h26.67v6.9h-19v8.87h16.23v6.91H384.3v9.09h19v6.91H376.61Z"/>
          <path d="M420.46,101.05v10.28a61.36,61.36,0,0,1-.57,8.76,21.34,21.34,0,0,1-2,6.79,11.91,11.91,0,0,1-4.07,4.6,15.77,15.77,0,0,1-6.71,2.3l-1.68-6.28a11.35,11.35,0,0,0,3.87-2,8.31,8.31,0,0,0,2.28-3.14,15.15,15.15,0,0,0,1.06-4.55c.17-1.76.26-3.83.26-6.23V94.15h25.49v38.68h-7.81V101.05Z"/>
          <path d="M445.33,132.83V94.15H453v14.71h8.92a13.62,13.62,0,0,1,5.11.9,11.2,11.2,0,0,1,3.82,2.47,10.81,10.81,0,0,1,2.42,3.77,13.32,13.32,0,0,1,.84,4.79,14.1,14.1,0,0,1-.68,4.27,11.17,11.17,0,0,1-2.1,3.86,11,11,0,0,1-3.68,2.81,12.33,12.33,0,0,1-5.44,1.1Zm7.69-6.91h8a5.74,5.74,0,0,0,4.13-1.46,4.8,4.8,0,0,0,1.54-3.65,4.68,4.68,0,0,0-1.54-3.64,6,6,0,0,0-4.19-1.41H453Z"/>
          <path d="M501.47,103.52a10.36,10.36,0,0,0-3.87-2.1,15,15,0,0,0-4.05-.59,9.56,9.56,0,0,0-2.58.36,6.27,6.27,0,0,0-2.3,1.21,6.41,6.41,0,0,0-1.66,2.19,7.49,7.49,0,0,0-.64,3.26v11.28a7.32,7.32,0,0,0,.64,3.23,6.19,6.19,0,0,0,1.69,2.16,7,7,0,0,0,2.3,1.24,8.58,8.58,0,0,0,2.55.39,14.73,14.73,0,0,0,4-.56,12,12,0,0,0,4-2.14l3.64,6a15.49,15.49,0,0,1-5.22,2.8,20.63,20.63,0,0,1-6.51,1,18.94,18.94,0,0,1-5.39-.78,15,15,0,0,1-4.71-2.33,11.91,11.91,0,0,1-3.37-3.88,11,11,0,0,1-1.29-5.47V106.27a11.2,11.2,0,0,1,1.26-5.41A12.05,12.05,0,0,1,483.25,97a14.46,14.46,0,0,1,4.69-2.35,18.56,18.56,0,0,1,5.39-.79,23.21,23.21,0,0,1,6.48.9,13.77,13.77,0,0,1,5.36,2.86Z"/>
          <path d="M525.55,101.05v31.78h-7.69V101.05H507.59v-6.9h28.18v6.9Z"/>
          <path d="M569.06,121.34a13.2,13.2,0,0,1-.73,4.43,10.62,10.62,0,0,1-2.13,3.64,10.21,10.21,0,0,1-3.48,2.5,11.92,11.92,0,0,1-4.83.92H539.76V94.15h17.4a13.58,13.58,0,0,1,5,.84,9.34,9.34,0,0,1,5.53,5.68,11.94,11.94,0,0,1,.67,4,9.56,9.56,0,0,1-1.15,4.39,8,8,0,0,1-3.62,3.49,8.47,8.47,0,0,1,2.41,1.71,10.55,10.55,0,0,1,1.69,2.24,10.71,10.71,0,0,1,1,2.47A9.39,9.39,0,0,1,569.06,121.34Zm-8.59-15.91a4.11,4.11,0,0,0-1.26-3.25,5.83,5.83,0,0,0-4-1.13h-7.8v8.48h7.91a5.73,5.73,0,0,0,3.77-1.12A3.7,3.7,0,0,0,560.47,105.43Zm.45,15.64a4.81,4.81,0,0,0-1.4-3.6,5.34,5.34,0,0,0-3.88-1.37h-8.19v9.82h8.25a5.29,5.29,0,0,0,3.9-1.31A4.75,4.75,0,0,0,560.92,121.07Z"/>
          <path d="M604.21,120.48A12.11,12.11,0,0,1,603,126a11.94,11.94,0,0,1-3.19,4,13.84,13.84,0,0,1-4.74,2.44,20.78,20.78,0,0,1-11.49,0,13.7,13.7,0,0,1-4.73-2.44,11.82,11.82,0,0,1-3.19-4,12.11,12.11,0,0,1-1.18-5.5V106.27a11.33,11.33,0,0,1,4.54-9.37,14.44,14.44,0,0,1,4.76-2.36,19.8,19.8,0,0,1,5.55-.79,18.27,18.27,0,0,1,5.55.85A15,15,0,0,1,599.67,97a11.9,11.9,0,0,1,3.31,4,11.76,11.76,0,0,1,1.23,5.47Zm-7.69-12.63a7.59,7.59,0,0,0-.62-3.23,6.17,6.17,0,0,0-1.63-2.16,6.53,6.53,0,0,0-2.27-1.24,8.82,8.82,0,0,0-2.61-.39,9.07,9.07,0,0,0-2.64.39,6.49,6.49,0,0,0-2.3,1.24,6.05,6.05,0,0,0-1.63,2.16,7.59,7.59,0,0,0-.62,3.23v11.28a7.83,7.83,0,0,0,.62,3.26,6,6,0,0,0,1.63,2.19,6.11,6.11,0,0,0,2.3,1.2,9.41,9.41,0,0,0,2.64.37,9.15,9.15,0,0,0,2.61-.37,6,6,0,0,0,3.9-3.39,7.83,7.83,0,0,0,.62-3.26Z"/>
          <path d="M209.25,172.53a13.16,13.16,0,0,1-.73,4.43,10.9,10.9,0,0,1-2.13,3.65,10.32,10.32,0,0,1-3.48,2.49,11.76,11.76,0,0,1-4.83.93H179.94V145.34h17.41a13.32,13.32,0,0,1,5,.85,9.27,9.27,0,0,1,5.53,5.68,11.86,11.86,0,0,1,.68,4,9.72,9.72,0,0,1-1.15,4.39,7.89,7.89,0,0,1-3.62,3.48,8.47,8.47,0,0,1,2.41,1.71,10.84,10.84,0,0,1,1.68,2.24,10.62,10.62,0,0,1,1,2.47A9,9,0,0,1,209.25,172.53Zm-8.59-15.9a4.15,4.15,0,0,0-1.26-3.26,5.83,5.83,0,0,0-4-1.12h-7.8v8.48h7.91a5.68,5.68,0,0,0,3.76-1.13A3.68,3.68,0,0,0,200.66,156.63Zm.45,15.63a4.83,4.83,0,0,0-1.4-3.6,5.34,5.34,0,0,0-3.88-1.36h-8.19v9.82h8.25a5.33,5.33,0,0,0,3.9-1.31A4.79,4.79,0,0,0,201.11,172.26Z"/>
          <path d="M246.47,145.34a10.44,10.44,0,0,1,4.94,1.1,10.68,10.68,0,0,1,3.46,2.83,11.64,11.64,0,0,1,2,3.91,14.73,14.73,0,0,1,.64,4.23,12.94,12.94,0,0,1-2.94,8.14,11.21,11.21,0,0,1-3.54,2.84,10.26,10.26,0,0,1-4.8,1.09h-9.38V184h-7.69V145.34Zm-9.6,17.24h7.86a5.15,5.15,0,0,0,4-1.47,5.19,5.19,0,0,0-4-8.86h-7.86Z"/>
          <path d="M291,171.67a12.28,12.28,0,0,1-1.17,5.51,11.83,11.83,0,0,1-3.2,4,13.53,13.53,0,0,1-4.73,2.44,20.54,20.54,0,0,1-11.49,0,13.67,13.67,0,0,1-4.74-2.44,11.8,11.8,0,0,1-3.19-4,12.28,12.28,0,0,1-1.18-5.51v-14.2a11.53,11.53,0,0,1,1.24-5.45,11.64,11.64,0,0,1,3.3-3.93,14.67,14.67,0,0,1,4.77-2.35,19.42,19.42,0,0,1,5.54-.79,18.48,18.48,0,0,1,5.55.84,15.2,15.2,0,0,1,4.76,2.44,11.55,11.55,0,0,1,4.54,9.46ZM283.3,159a7.48,7.48,0,0,0-.62-3.23,6.24,6.24,0,0,0-1.62-2.16,6.55,6.55,0,0,0-2.28-1.23,8.78,8.78,0,0,0-2.61-.4,9.08,9.08,0,0,0-2.64.4,6.47,6.47,0,0,0-2.3,1.23,6.26,6.26,0,0,0-1.63,2.16A7.63,7.63,0,0,0,269,159v11.29a7.79,7.79,0,0,0,.61,3.25,6,6,0,0,0,3.93,3.4,9.78,9.78,0,0,0,2.64.36,9.45,9.45,0,0,0,2.61-.36,6.2,6.2,0,0,0,2.28-1.21,6.09,6.09,0,0,0,1.62-2.19,7.63,7.63,0,0,0,.62-3.25Z"/>
          <path d="M320.13,154.72a10.53,10.53,0,0,0-3.87-2.11,15,15,0,0,0-4.05-.59,9.58,9.58,0,0,0-2.58.37,6,6,0,0,0-2.3,1.21,6.41,6.41,0,0,0-1.66,2.19A7.45,7.45,0,0,0,305,159v11.29a7.32,7.32,0,0,0,.64,3.23,6.51,6.51,0,0,0,1.69,2.16,6.83,6.83,0,0,0,2.3,1.23,8.58,8.58,0,0,0,2.55.39,14.34,14.34,0,0,0,4-.56,11.74,11.74,0,0,0,4-2.13l3.65,5.95a15.7,15.7,0,0,1-5.22,2.81,21,21,0,0,1-6.52,1,18.61,18.61,0,0,1-5.39-.79A14.83,14.83,0,0,1,302,181.3a12,12,0,0,1-3.37-3.87,11.13,11.13,0,0,1-1.29-5.48V157.47a11.24,11.24,0,0,1,1.26-5.42,12.25,12.25,0,0,1,3.31-3.9,14.48,14.48,0,0,1,4.69-2.36A18.94,18.94,0,0,1,312,145a23.65,23.65,0,0,1,6.49.89,13.93,13.93,0,0,1,5.36,2.87Z"/>
          <path d="M351.63,154.72a10.49,10.49,0,0,0-3.88-2.11,14.85,14.85,0,0,0-4-.59,9.58,9.58,0,0,0-2.58.37,6,6,0,0,0-2.3,1.21,6.29,6.29,0,0,0-1.66,2.19,7.44,7.44,0,0,0-.65,3.25v11.29a7.32,7.32,0,0,0,.65,3.23,6.48,6.48,0,0,0,1.68,2.16,6.87,6.87,0,0,0,2.31,1.23,8.58,8.58,0,0,0,2.55.39,14.34,14.34,0,0,0,4-.56,11.61,11.61,0,0,0,4-2.13l3.65,5.95a15.51,15.51,0,0,1-5.22,2.81,20.92,20.92,0,0,1-6.51,1,18.56,18.56,0,0,1-5.39-.79,15,15,0,0,1-4.72-2.33,12.1,12.1,0,0,1-3.37-3.87,11.13,11.13,0,0,1-1.29-5.48V157.47a11.13,11.13,0,0,1,1.27-5.42,12.12,12.12,0,0,1,3.31-3.9,14.38,14.38,0,0,1,4.69-2.36,18.84,18.84,0,0,1,5.39-.78,23.63,23.63,0,0,1,6.48.89,13.86,13.86,0,0,1,5.36,2.87Z"/>
          <path d="M383.63,158.82l-3.82,5.89-1.66,2.61c-.65,1-1.37,2.15-2.16,3.34l-2.41,3.71c-.83,1.27-1.62,2.51-2.39,3.7L369,181.42c-.67,1-1.23,1.9-1.68,2.61h-7V145.34h7.7v25.44h.22l8.06-12.64,8.24-12.8h7V184h-7.69V158.82Z"/>
          <path d="M421.52,158.82l-3.81,5.89-1.66,2.61c-.66,1-1.38,2.15-2.16,3.34s-1.59,2.44-2.42,3.71l-2.38,3.7-2.16,3.35c-.68,1-1.24,1.9-1.69,2.61h-7V145.34H406v25.44h.23l8.06-12.64,8.23-12.8h7V184h-7.7V158.82Z"/>
        </g>
      </g>
    </g>
  </g>
</svg>
