<svg xmlns="http://www.w3.org/2000/svg" viewBox="0 0 172.42 69.76">
  <g id="Слой_2" data-name="Слой 2">
    <g id="Слой_1-2" data-name="Слой 1">
      <g>
        <g>
          <g>
            <path d="M17.07,33.14c0,7-5.33,11.16-11.73,11.16H1v-5H5a5.7,5.7,0,0,0,5.82-6V11.54h6.23Z" style="fill: #14120d"/>
            <path d="M43.34,11.15a31,31,0,0,1,6.93.95l-.36,4.58a49.44,49.44,0,0,0-6.56-.58h-.94a5.72,5.72,0,0,0-5.83,6V33.3a5.71,5.71,0,0,0,5.83,6h.94a46.3,46.3,0,0,0,6.56-.58l.36,4.58a30.42,30.42,0,0,1-6.93,1H42.1c-6.41,0-11.73-4.15-11.73-11.16V22.31c0-7,5.32-11.16,11.73-11.16Z" style="fill: #14120d"/>
            <path d="M65.13,11.17C71.38,11.17,77,15.69,77,22.36V33.15c0,6.51-5.15,11.15-11.85,11.15H63.58c-7.11,0-11.78-4.76-11.78-11.15V22.36c0-6.65,5.14-11.19,11.78-11.19Zm-1.27,5A5.85,5.85,0,0,0,58,22.19V33.32a5.78,5.78,0,0,0,5.86,6h1a5.83,5.83,0,0,0,5.91-6V22.19a6,6,0,0,0-5.91-6.07Z" style="fill: #14120d"/>
            <path d="M105.27,43.93l-.72-21.11L97.31,36.44H93.76L86.53,22.82l-.79,21.11H79.65l1.18-32.39H87l8.54,17,8.48-17h6.15l1.25,32.39Z" style="fill: #14120d"/>
            <path d="M140.41,43.93l-.72-21.11-7.23,13.62H128.9l-7.23-13.62-.79,21.11h-6.09L116,11.54h6.14l8.54,17,8.47-17h6.16l1.25,32.39Z" style="fill: #14120d"/>
          </g>
          <polygon points="28.61 0 17.07 0 17.07 11.54 28.61 0" style="fill: #d41116"/>
          <polygon points="172.42 69.76 172.42 43.87 146.53 43.87 172.42 69.76" style="fill: #d41116"/>
        </g>
        <g>
          <path d="M3,62a6.82,6.82,0,0,1,1.63.23l-.08,1.07a11.91,11.91,0,0,0-1.54-.14H2.83a1.34,1.34,0,0,0-1.37,1.42v2.62A1.34,1.34,0,0,0,2.83,68.6h.22a10.37,10.37,0,0,0,1.54-.14l.08,1.08A7.38,7.38,0,0,1,3,69.76H2.75A2.58,2.58,0,0,1,0,67.14V64.6A2.58,2.58,0,0,1,2.75,62Z" style="fill: #d41116"/>
          <path d="M8.87,62a2.68,2.68,0,0,1,2.78,2.62v2.54a2.63,2.63,0,0,1-2.78,2.61H8.5a2.57,2.57,0,0,1-2.76-2.61V64.61A2.6,2.6,0,0,1,8.5,62Zm-.3,1.16a1.37,1.37,0,0,0-1.38,1.42v2.62a1.37,1.37,0,0,0,1.38,1.42H8.8a1.37,1.37,0,0,0,1.39-1.42V64.57A1.39,1.39,0,0,0,8.8,63.15Z" style="fill: #d41116"/>
          <path d="M14.58,63.18V65H16.5a1.94,1.94,0,0,1,2.08,2.1v.59a2,2,0,0,1-2.08,2H13.13V62.07h5v1.11Zm0,5.31h1.7a.84.84,0,0,0,.84-.86V67a.83.83,0,0,0-.84-.86h-1.7Z" style="fill: #d41116"/>
          <path d="M23.42,64.58a2,2,0,0,1,2.08,2.15v.79a2,2,0,0,1-2.08,2.16H20.05V62.07H21.5v2.51ZM21.5,68.49h1.7a.85.85,0,0,0,.85-.86v-1a.82.82,0,0,0-.85-.85H21.5Zm4.68,1.19V62.07h1.46v7.61Z" style="fill: #d41116"/>
          <path d="M32.54,63.22v6.46H31.08V63.22H28.87V62.07H34.7v1.15Z" style="fill: #d41116"/>
          <path d="M40.4,69.68V64.56l-3.09,5.12H35.88V62.07h1.44v5.15l3.1-5.15h1.42v7.61Z" style="fill: #d41116"/>
          <path d="M47.44,69.68V67.16H45.92l-1,2.52H43.21l1.33-2.88A1.85,1.85,0,0,1,43.43,65v-.79a2,2,0,0,1,2.09-2.15h3.37v7.61Zm-1.7-6.42a.85.85,0,0,0-.85.86v1a.82.82,0,0,0,.85.85h1.69V63.26Z" style="fill: #d41116"/>
          <path d="M58.27,69.68V64.56l-3.1,5.12H53.74V62.07h1.44v5.15l3.1-5.15H59.7v7.61Z" style="fill: #d41116"/>
          <path d="M67.81,63.22v6.46H66.35V63.22h-2.2V62.07H70v1.15Z" style="fill: #d41116"/>
          <path d="M72.62,63.24v2h2.8v1.16h-2.8v2.11h3.2v1.16H71.15V62.07h4.67v1.17Z" style="fill: #d41116"/>
          <path d="M82.82,69.68H81.29l-1.57-2.82-1.57,2.82H76.61l2.25-3.8-2.24-3.81h1.54l1.56,2.82,1.57-2.82h1.54l-2.24,3.81Z" style="fill: #d41116"/>
          <path d="M88.32,69.68V66.44h-2.9v3.24H84V62.07h1.46v3.21h2.9V62.07h1.46v7.61Z" style="fill: #d41116"/>
          <path d="M94.34,62a2.68,2.68,0,0,1,2.78,2.62v2.54a2.63,2.63,0,0,1-2.78,2.61H94a2.57,2.57,0,0,1-2.76-2.61V64.61A2.61,2.61,0,0,1,94,62ZM94,63.15a1.37,1.37,0,0,0-1.37,1.42v2.62A1.36,1.36,0,0,0,94,68.61h.23a1.37,1.37,0,0,0,1.39-1.42V64.57a1.39,1.39,0,0,0-1.39-1.42Z" style="fill: #d41116"/>
          <path d="M103.13,69.68V63.25h-2.49V67.8a1.86,1.86,0,0,1-1.83,1.91H98V68.35h.31c.56,0,.85-.39.85-1V62.07h5.42v7.61Z" style="fill: #d41116"/>
          <path d="M109.08,62a2.67,2.67,0,0,1,2.78,2.62v2.54a2.63,2.63,0,0,1-2.78,2.61h-.36A2.58,2.58,0,0,1,106,67.15V64.61A2.61,2.61,0,0,1,108.72,62Zm-.3,1.16a1.37,1.37,0,0,0-1.37,1.42v2.62a1.36,1.36,0,0,0,1.38,1.42H109a1.37,1.37,0,0,0,1.39-1.42V64.57A1.39,1.39,0,0,0,109,63.15Z" style="fill: #d41116"/>
          <path d="M114.8,63.18v6.5h-1.46V62.07h5v1.11Z" style="fill: #d41116"/>
          <path d="M124,69.68V64.56l-3.1,5.12h-1.42V62.07H121v5.15l3.1-5.15h1.41v7.61Z" style="fill: #d41116"/>
          <path d="M131.53,69.68V64.56l-3.1,5.12H127V62.07h1.44v5.15l3.1-5.15H133v7.61Z" style="fill: #d41116"/>
        </g>
      </g>
    </g>
  </g>
</svg>
