<svg xmlns="http://www.w3.org/2000/svg" viewBox="0 0 283.41 67.61">
  <g id="Слой_2" data-name="Слой 2">
    <g id="Слой_1-2" data-name="Слой 1">
      <g>
        <g>
          <path d="M147,36.41c-.08-.47-.18-1.11-.31-1.94a9,9,0,0,0-.51-2.09l-.73-1.74a9.46,9.46,0,0,0-1.06-1.88A14.29,14.29,0,0,0,143,27.18a15.89,15.89,0,0,0-22.32,0,12.41,12.41,0,0,0-3,4.8,18.82,18.82,0,0,0-1.06,4.93c-.08,1.43-.12,3.64-.12,6.73v1.47a68.68,68.68,0,0,0,.68,11.54A12.15,12.15,0,0,0,120.68,63,15.89,15.89,0,0,0,143,63a12.26,12.26,0,0,0,3.44-6.22,66.3,66.3,0,0,0,.71-11.7V40.69c0-.39,0-1.07,0-2A17,17,0,0,0,147,36.41Zm-4,7.66v1.65c0,3,0,5.22-.09,6.53a18.08,18.08,0,0,1-.84,4.38,9.33,9.33,0,0,1-2.3,4,11.34,11.34,0,0,1-15.85,0A9.54,9.54,0,0,1,121.35,56a42.91,42.91,0,0,1-.66-9V45.11a62.77,62.77,0,0,1,.6-10.35,9.71,9.71,0,0,1,2.62-5.14,11.36,11.36,0,0,1,15.85,0,9.55,9.55,0,0,1,2.6,4.73A51.07,51.07,0,0,1,143,44.07Z" style="fill: #3c3c3b"/>
          <path d="M158.88,34.75a9.09,9.09,0,0,1,3.74-6,11.52,11.52,0,0,1,7-2.35,10.76,10.76,0,0,1,5,1.08A21.25,21.25,0,0,1,179.25,31l.31.29,2.82-2.81-.34-.31a26.46,26.46,0,0,0-5.9-4.12,14.87,14.87,0,0,0-6.59-1.42,15.33,15.33,0,0,0-11.22,4.58,13.08,13.08,0,0,0-3.59,6.74c-.38,1.75-.56,5.41-.56,11.19a67.64,67.64,0,0,0,.71,11.67A11.58,11.58,0,0,0,158.34,63a15.81,15.81,0,0,0,11.27,4.57,14.72,14.72,0,0,0,6.53-1.35,26.66,26.66,0,0,0,5.9-4.19l.33-.3L179.56,59l-.31.29a21.34,21.34,0,0,1-4.62,3.5,10.76,10.76,0,0,1-5,1.08,11,11,0,0,1-8-3.23A9.56,9.56,0,0,1,159,56a43.31,43.31,0,0,1-.66-9V45.11A69.15,69.15,0,0,1,158.88,34.75Z" style="fill: #3c3c3b"/>
          <polygon points="185.52 26.76 198.45 26.76 198.45 67.25 202.6 67.25 202.6 26.76 215.59 26.76 215.59 22.97 185.52 22.97 185.52 26.76" style="fill: #3c3c3b"/>
          <path d="M247.54,36.41c-.09-.47-.19-1.11-.31-1.94a9,9,0,0,0-.51-2.09c-.21-.49-.45-1.07-.74-1.74a9.43,9.43,0,0,0-1-1.88,13.38,13.38,0,0,0-1.36-1.58,15.87,15.87,0,0,0-22.31,0,12.25,12.25,0,0,0-3,4.8,18.82,18.82,0,0,0-1.06,4.93c-.08,1.42-.12,3.62-.12,6.73v1.47a70.07,70.07,0,0,0,.67,11.54A12.17,12.17,0,0,0,221.26,63a15.87,15.87,0,0,0,22.31,0A12.28,12.28,0,0,0,247,56.81a66.38,66.38,0,0,0,.71-11.7V40.69c0-.39,0-1.07,0-2A18.58,18.58,0,0,0,247.54,36.41Zm-4,7.66v1.65c0,3,0,5.22-.09,6.53a18.08,18.08,0,0,1-.84,4.38,9.43,9.43,0,0,1-2.3,4,11.34,11.34,0,0,1-15.85,0A9.56,9.56,0,0,1,221.92,56a43.75,43.75,0,0,1-.66-9V45.11a62.49,62.49,0,0,1,.61-10.35,9.64,9.64,0,0,1,2.62-5.14,11.36,11.36,0,0,1,15.85,0,9.55,9.55,0,0,1,2.6,4.73A51.93,51.93,0,0,1,243.57,44.07Z" style="fill: #3c3c3b"/>
          <path d="M279.84,46.49a13.44,13.44,0,0,0-3.2-2,10.57,10.57,0,0,0,2.67-1.7,10.84,10.84,0,0,0,3.43-8.18,10.84,10.84,0,0,0-3.62-8.43A13.59,13.59,0,0,0,269.74,23H253.33V67.25h16.9c4.08,0,7.32-1.09,9.65-3.23a11.55,11.55,0,0,0,3.53-8.91A11.12,11.12,0,0,0,279.84,46.49Zm-22.35,0h12.37a9.91,9.91,0,0,1,6.88,2.29A8,8,0,0,1,279.25,55a8,8,0,0,1-2.51,6.17,9.91,9.91,0,0,1-6.88,2.29H257.49Zm18.7-5.91a10,10,0,0,1-6.81,2.11H257.49v-16h11.89a10.06,10.06,0,0,1,6.78,2.12,7.28,7.28,0,0,1,2.42,5.86A7.45,7.45,0,0,1,276.19,40.61Z" style="fill: #3c3c3b"/>
          <path d="M89.45,55.81,78.24,31l-.16-.35c-.1-.23-.21-.46-.32-.68l0-.05h0A10.68,10.68,0,0,0,77,28.76a14.39,14.39,0,0,0-1.36-1.58A15.23,15.23,0,0,0,64.8,22.6H0v3.8H64.79a10.81,10.81,0,0,1,7.65,3.22,9.86,9.86,0,0,1,1.79,2.51l.9,1.71L87.47,61.15h3.85l12.46-28.08V67.25h4.16V23h-4Z" style="fill: #3c3c3b"/>
          <path d="M119.31,14.56h2L116,.11h-1.52L109.2,14.56h2l1.18-3.3h5.72ZM113,9.48l2.23-6.27,2.23,6.27Z" style="fill: #3c3c3b"/>
          <path d="M124.82,13.16a5.25,5.25,0,0,0,3.73,1.51,5,5,0,0,0,2.18-.45,8.77,8.77,0,0,0,1.91-1.36l.34-.3-1.31-1.31-.31.29A6.3,6.3,0,0,1,130,12.59a3.41,3.41,0,0,1-3.73-.62,2.72,2.72,0,0,1-.73-1.3,13.68,13.68,0,0,1-.19-2.76V7.34a21.37,21.37,0,0,1,.16-3.19h0a2.49,2.49,0,0,1,1.05-1.68,3.27,3.27,0,0,1,2-.68,2.94,2.94,0,0,1,1.43.31,5.92,5.92,0,0,1,1.38,1l.31.29L133,2.11l-.34-.3A8.91,8.91,0,0,0,130.73.47,5,5,0,0,0,128.54,0a5,5,0,0,0-3.72,1.52,4.39,4.39,0,0,0-1.21,2.26,21.44,21.44,0,0,0-.18,3.56,20.24,20.24,0,0,0,.23,3.7A3.88,3.88,0,0,0,124.82,13.16Z" style="fill: #3c3c3b"/>
          <polygon points="139.1 14.56 141 14.56 141 1.9 145.06 1.9 145.06 0.11 135.06 0.11 135.06 1.9 139.1 1.9 139.1 14.56" style="fill: #3c3c3b"/>
          <polygon points="156.25 12.78 149.04 12.78 149.04 8.17 155.18 8.17 155.18 6.39 149.04 6.39 149.04 1.9 156.25 1.9 156.25 0.11 147.15 0.11 147.15 14.56 156.25 14.56 156.25 12.78" style="fill: #3c3c3b"/>
          <path d="M160.23,8.8h3.51A4.57,4.57,0,0,0,167,7.61a4.16,4.16,0,0,0,1.25-3.15A4.2,4.2,0,0,0,167,1.3,4.57,4.57,0,0,0,163.74.11h-5.41V14.56h1.9Zm0-6.9h3.4a2.91,2.91,0,0,1,2.06.66,2.49,2.49,0,0,1,.69,1.9,2.48,2.48,0,0,1-.69,1.89,2.92,2.92,0,0,1-2.06.67h-3.4Z" style="fill: #3c3c3b"/>
          <path d="M171.75,13.16a5.25,5.25,0,0,0,3.74,1.51,4.92,4.92,0,0,0,2.17-.45,8.54,8.54,0,0,0,1.91-1.36l.34-.3-1.31-1.31-.3.29a6.8,6.8,0,0,1-1.38,1.05,3.43,3.43,0,0,1-3.74-.62,2.7,2.7,0,0,1-.72-1.3,13.43,13.43,0,0,1-.2-2.76V7.34a21.37,21.37,0,0,1,.16-3.19h0a2.45,2.45,0,0,1,1-1.68,3.23,3.23,0,0,1,2-.68,3,3,0,0,1,1.43.31,6.36,6.36,0,0,1,1.38,1l.3.29,1.31-1.31-.34-.3A8.91,8.91,0,0,0,177.66.47,5,5,0,0,0,175.47,0a5.08,5.08,0,0,0-3.72,1.52,4.39,4.39,0,0,0-1.21,2.25,21.67,21.67,0,0,0-.18,3.57,21.21,21.21,0,0,0,.23,3.7A3.94,3.94,0,0,0,171.75,13.16Z" style="fill: #3c3c3b"/>
          <path d="M190.82,14.56h3.49l1.18-3.3h5.72l1.18,3.3h2L199.11.11h-1.52l-5,13.65-4.66-8L192.49.11h-2.35l-6.25,7.7V.11H182V14.56h1.89v-4l2.75-3.32Zm5.3-5.08,2.23-6.27,2.23,6.27Z" style="fill: #3c3c3b"/>
          <path d="M206.9,1.3a4.2,4.2,0,0,0-1.25,3.16,4.3,4.3,0,0,0,.93,2.8,4.09,4.09,0,0,0,2,1.3l-3.33,6h2.19l3.17-5.76h3.12v5.76h1.9V.11h-5.41A4.54,4.54,0,0,0,206.9,1.3Zm.64,3.16a2.45,2.45,0,0,1,.7-1.9,2.9,2.9,0,0,1,2.06-.66h3.39V7H210.3a2.9,2.9,0,0,1-2.06-.67A2.45,2.45,0,0,1,207.54,4.46Z" style="fill: #3c3c3b"/>
          <path d="M96.12,13.16A3.88,3.88,0,0,0,97.28,11a19.15,19.15,0,0,0,.23-3.41V4.94L101,12.65h1.6L106,5v9.58h1.9V.11h-1.75L101.8,10,97.36.11H95.62l0,8.77a9.32,9.32,0,0,1-.19,1.79,2.62,2.62,0,0,1-.72,1.3,3,3,0,0,1-2.24.92v.43h0l-.1-.43h-82v1.78H92.47A5.27,5.27,0,0,0,96.12,13.16Z" style="fill: #3c3c3b"/>
        </g>
        <g>
          <rect x="10.4" y="31.27" width="4.11" height="19.05" style="fill: #bd1622"/>
          <rect x="29.5" y="31.27" width="4.11" height="27.58" style="fill: #bd1622"/>
          <rect x="48.59" y="31.27" width="4.11" height="35.98" style="fill: #bd1622"/>
        </g>
      </g>
    </g>
  </g>
</svg>
